<?xml version="1.0" encoding="UTF-8"?><svg id="_レイヤー_2" xmlns="http://www.w3.org/2000/svg" viewBox="0 0 235.38 42.08"><defs><style>.cls-1{fill:#111;}</style></defs><g id="_レイヤー_1-2"><g><path class="cls-1" d="M0,0H15.06l5.04,23.16h.48l8.7-12.06h.6l8.7,12.06h.48L44.1,0h15.06l-9.84,42h-12.84l-6.84-11.1h-.24l-6.72,11.1H9.84L0,0Z"/><path class="cls-1" d="M76.2,11.12V31.04h23.04v11.04H62.16V.08h37.08V11.12h-23.04Z"/><path class="cls-1" d="M103.92,30.9h21.9c1.86,0,2.76-.84,2.76-2.22s-.9-2.16-2.82-2.16h-9.96c-7.02,0-12.72-4.8-12.72-13.26,0-9.72,6.66-13.26,13.38-13.26h24.84V11.1h-21.42c-1.62,0-2.76,.6-2.76,2.1s1.14,2.22,2.76,2.22h9.36c8.04,0,13.38,4.74,13.38,13.2,0,7.98-6,13.38-13.8,13.38h-25.08l.18-11.1Z"/><path class="cls-1" d="M161.76,11.12V31.04h23.04v11.04h-37.08V.08h37.08V11.12h-23.04Z"/><path class="cls-1" d="M190.2,0h14.04l16.68,21.84h.42V0h14.04V42h-14.04l-16.62-21.12h-.48v21.12h-14.04V0Z"/></g></g></svg>